<?xml version="1.0" encoding="UTF-8" standalone="no"?>
<svg
   xmlns:dc="http://purl.org/dc/elements/1.1/"
   xmlns:cc="http://creativecommons.org/ns#"
   xmlns:rdf="http://www.w3.org/1999/02/22-rdf-syntax-ns#"
   xmlns:svg="http://www.w3.org/2000/svg"
   xmlns="http://www.w3.org/2000/svg"
   xmlns:sodipodi="http://sodipodi.sourceforge.net/DTD/sodipodi-0.dtd"
   xmlns:inkscape="http://www.inkscape.org/namespaces/inkscape"
   height="311pt"
   viewBox="0 0 311 311.09867"
   width="311pt"
   version="1.1"
   id="svg6"
   sodipodi:docname="close.svg"
   inkscape:version="1.0.2 (e86c870879, 2021-01-15)">
  <metadata
     id="metadata12">
    <rdf:RDF>
      <cc:Work
         rdf:about="">
        <dc:format>image/svg+xml</dc:format>
        <dc:type
           rdf:resource="http://purl.org/dc/dcmitype/StillImage" />
      </cc:Work>
    </rdf:RDF>
  </metadata>
  <defs
     id="defs10" />
  <sodipodi:namedview
     pagecolor="#ffffff"
     bordercolor="#666666"
     borderopacity="1"
     objecttolerance="10"
     gridtolerance="10"
     guidetolerance="10"
     inkscape:pageopacity="0"
     inkscape:pageshadow="2"
     inkscape:window-width="706"
     inkscape:window-height="480"
     id="namedview8"
     showgrid="false"
     inkscape:zoom="0.28136484"
     inkscape:cx="447.66994"
     inkscape:cy="336.3932"
     inkscape:window-x="0"
     inkscape:window-y="0"
     inkscape:window-maximized="0"
     inkscape:current-layer="svg6" />
  <path
     d="m16.042969 311.097656c-4.09375 0-8.191407-1.554687-11.304688-4.691406-6.25-6.25-6.25-16.386719 0-22.636719l279.058594-279.058593c6.253906-6.253907 16.386719-6.253907 22.636719 0 6.25 6.25 6.25 16.382812 0 22.632812l-279.0625 279.0625c-3.136719 3.136719-7.230469 4.691406-11.328125 4.691406zm0 0"
     id="path2"
     style="fill:#ffffff" />
  <path
     d="m295.125 311.097656c-4.09375 0-8.191406-1.554687-11.304688-4.691406l-279.082031-279.082031c-6.25-6.253907-6.25-16.386719 0-22.636719s16.382813-6.25 22.632813 0l279.0625 279.082031c6.25 6.25 6.25 16.386719 0 22.636719-3.136719 3.136719-7.230469 4.691406-11.308594 4.691406zm0 0"
     id="path4"
     style="fill:#ffffff" />
</svg>
