<?xml version="1.0" encoding="UTF-8" standalone="no"?>
<svg
   xmlns:dc="http://purl.org/dc/elements/1.1/"
   xmlns:cc="http://creativecommons.org/ns#"
   xmlns:rdf="http://www.w3.org/1999/02/22-rdf-syntax-ns#"
   xmlns:svg="http://www.w3.org/2000/svg"
   xmlns="http://www.w3.org/2000/svg"
   xmlns:sodipodi="http://sodipodi.sourceforge.net/DTD/sodipodi-0.dtd"
   xmlns:inkscape="http://www.inkscape.org/namespaces/inkscape"
   version="1.1"
   id="Capa_1"
   x="0px"
   y="0px"
   viewBox="0 0 17.056 17.056"
   style="enable-background:new 0 0 17.056 17.056;"
   xml:space="preserve"
   sodipodi:docname="logotipo-de-python-language.svg"
   inkscape:version="1.0.2 (e86c870879, 2021-01-15)"><metadata
   id="metadata45"><rdf:RDF><cc:Work
       rdf:about=""><dc:format>image/svg+xml</dc:format><dc:type
         rdf:resource="http://purl.org/dc/dcmitype/StillImage" /></cc:Work></rdf:RDF></metadata><defs
   id="defs43" /><sodipodi:namedview
   pagecolor="#ffffff"
   bordercolor="#666666"
   borderopacity="1"
   objecttolerance="10"
   gridtolerance="10"
   guidetolerance="10"
   inkscape:pageopacity="0"
   inkscape:pageshadow="2"
   inkscape:window-width="1600"
   inkscape:window-height="826"
   id="namedview41"
   showgrid="false"
   inkscape:zoom="9.6740152"
   inkscape:cx="-5.4312484"
   inkscape:cy="10.40567"
   inkscape:window-x="0"
   inkscape:window-y="0"
   inkscape:window-maximized="1"
   inkscape:current-layer="Capa_1" />
<g
   id="g8"
   style="fill:#f75454;fill-opacity:1">
	<g
   id="g6"
   style="fill:#f75454;fill-opacity:1">
		<path
   style="fill:#f75454;fill-opacity:1"
   d="M11.298,8.02c1.295-0.587,1.488-5.055,0.724-6.371c-0.998-1.718-5.742-1.373-7.24-0.145    C4.61,2.114,4.628,3.221,4.636,4.101h4.702v0.412H4.637c0,0.006-2.093,0.013-2.093,0.013c-3.609,0-3.534,7.838,1.228,7.838    c0,0,0.175-1.736,0.481-2.606C5.198,7.073,9.168,8.986,11.298,8.02z M6.375,3.465c-0.542,0-0.981-0.439-0.981-0.982    c0-0.542,0.439-0.982,0.981-0.982c0.543,0,0.982,0.44,0.982,0.982C7.358,3.025,6.918,3.465,6.375,3.465z"
   id="path2" />
		<path
   style="fill:#f75454;fill-opacity:1"
   d="M13.12,4.691c0,0-0.125,1.737-0.431,2.606c-0.945,2.684-4.914,0.772-7.045,1.738    C4.35,9.622,4.155,14.09,4.92,15.406c0.997,1.719,5.741,1.374,7.24,0.145c0.172-0.609,0.154-1.716,0.146-2.596H7.603v-0.412h4.701    c0-0.006,2.317-0.013,2.317-0.013C17.947,12.53,18.245,4.691,13.12,4.691z M10.398,13.42c0.542,0,0.982,0.439,0.982,0.982    c0,0.542-0.44,0.981-0.982,0.981s-0.981-0.439-0.981-0.981C9.417,13.859,9.856,13.42,10.398,13.42z"
   id="path4" />
	</g>
</g>
<g
   id="g10">
</g>
<g
   id="g12">
</g>
<g
   id="g14">
</g>
<g
   id="g16">
</g>
<g
   id="g18">
</g>
<g
   id="g20">
</g>
<g
   id="g22">
</g>
<g
   id="g24">
</g>
<g
   id="g26">
</g>
<g
   id="g28">
</g>
<g
   id="g30">
</g>
<g
   id="g32">
</g>
<g
   id="g34">
</g>
<g
   id="g36">
</g>
<g
   id="g38">
</g>
</svg>
