<?xml version="1.0" encoding="UTF-8" standalone="no"?>
<svg
   xmlns:dc="http://purl.org/dc/elements/1.1/"
   xmlns:cc="http://creativecommons.org/ns#"
   xmlns:rdf="http://www.w3.org/1999/02/22-rdf-syntax-ns#"
   xmlns:svg="http://www.w3.org/2000/svg"
   xmlns="http://www.w3.org/2000/svg"
   xmlns:sodipodi="http://sodipodi.sourceforge.net/DTD/sodipodi-0.dtd"
   xmlns:inkscape="http://www.inkscape.org/namespaces/inkscape"
   version="1.1"
   id="Capa_1"
   x="0px"
   y="0px"
   width="573.75px"
   height="573.75px"
   viewBox="0 0 573.75 573.75"
   style="enable-background:new 0 0 573.75 573.75;"
   xml:space="preserve"
   sodipodi:docname="xml-file-type-outlined-interface-symbol_icon-icons.com_57487.svg"
   inkscape:version="1.0.2 (e86c870879, 2021-01-15)"><metadata
   id="metadata49"><rdf:RDF><cc:Work
       rdf:about=""><dc:format>image/svg+xml</dc:format><dc:type
         rdf:resource="http://purl.org/dc/dcmitype/StillImage" /></cc:Work></rdf:RDF></metadata><defs
   id="defs47" /><sodipodi:namedview
   pagecolor="#ffffff"
   bordercolor="#666666"
   borderopacity="1"
   objecttolerance="10"
   gridtolerance="10"
   guidetolerance="10"
   inkscape:pageopacity="0"
   inkscape:pageshadow="2"
   inkscape:window-width="1600"
   inkscape:window-height="826"
   id="namedview45"
   showgrid="false"
   inkscape:zoom="0.20335097"
   inkscape:cx="-49.417157"
   inkscape:cy="339.47289"
   inkscape:window-x="0"
   inkscape:window-y="0"
   inkscape:window-maximized="1"
   inkscape:current-layer="Capa_1" />
<g
   id="g12"
   style="fill:#f75454;fill-opacity:1">
	<g
   id="g10"
   style="fill:#f75454;fill-opacity:1">
		<polygon
   points="267.75,277.312 239.062,327.037 210.375,277.312 191.25,277.312 229.5,344.25 191.25,411.188 210.375,411.188     239.062,361.463 267.75,411.188 286.875,411.188 248.625,344.25 286.875,277.312   "
   id="polygon2"
   style="fill:#f75454;fill-opacity:1" />
		<path
   d="M516.375,219.938h-153v-57.375L248.625,28.688H38.25C17.212,28.688,0,45.9,0,66.938v439.875    c0,21.037,17.212,38.25,38.25,38.25h286.875c21.037,0,38.25-17.213,38.25-38.25v-38.25h153c32.513,0,57.375-24.862,57.375-57.375    V277.312C573.75,244.8,548.888,219.938,516.375,219.938z M248.625,57.375l89.888,105.188H267.75    c-9.562,0-19.125-9.562-19.125-19.125V57.375z M344.25,506.812c0,9.562-7.65,19.125-19.125,19.125H38.25    c-9.562,0-19.125-7.65-19.125-19.125V66.938c0-9.562,7.65-19.125,19.125-19.125H229.5v95.625c0,21.038,17.212,38.25,38.25,38.25    h76.5v38.25h-153c-32.513,0-57.375,24.862-57.375,57.375v133.875c0,32.513,24.862,57.375,57.375,57.375h153V506.812z     M554.625,411.188c0,21.037-17.213,38.25-38.25,38.25H191.25c-21.038,0-38.25-17.213-38.25-38.25V277.312    c0-21.038,17.212-38.25,38.25-38.25h325.125c21.037,0,38.25,17.212,38.25,38.25V411.188z"
   id="path4"
   style="fill:#f75454;fill-opacity:1" />
		<polygon
   points="382.5,277.312 353.812,334.688 325.125,277.312 315.562,277.312 306,277.312 306,411.188 325.125,411.188     325.125,315.562 344.25,353.812 353.812,353.812 363.375,353.812 382.5,315.562 382.5,411.188 401.625,411.188 401.625,277.312     392.062,277.312   "
   id="polygon6"
   style="fill:#f75454;fill-opacity:1" />
		<polygon
   points="439.875,277.312 420.75,277.312 420.75,411.188 516.375,411.188 516.375,392.062 439.875,392.062   "
   id="polygon8"
   style="fill:#f75454;fill-opacity:1" />
	</g>
</g>
<g
   id="g14">
</g>
<g
   id="g16">
</g>
<g
   id="g18">
</g>
<g
   id="g20">
</g>
<g
   id="g22">
</g>
<g
   id="g24">
</g>
<g
   id="g26">
</g>
<g
   id="g28">
</g>
<g
   id="g30">
</g>
<g
   id="g32">
</g>
<g
   id="g34">
</g>
<g
   id="g36">
</g>
<g
   id="g38">
</g>
<g
   id="g40">
</g>
<g
   id="g42">
</g>
</svg>
